name C:\Users\antoi\Documents\MyRepositories\upper-imu-dc\Results\main_tracking\Case_78\FLX01_angularVelocities_bodyFrame.mot
datacolumns 4
datarows 70
range 2.54000000 3.23000000
endheader 
time	radius_imu_x	radius_imu_y	radius_imu_z	
          2.54000000	         -0.47111338	          0.44460935	         -0.68351737	
          2.55000000	         -0.46679938	          0.43266903	         -0.67597624	
          2.56000000	         -0.46327481	          0.42070153	         -0.66870178	
          2.57000000	         -0.46042638	          0.40881212	         -0.66175541	
          2.58000000	         -0.45814988	          0.39712439	         -0.65517419	
          2.59000000	         -0.45635199	          0.38577154	         -0.64897232	
          2.60000000	         -0.45495035	          0.37488492	         -0.64314592	
          2.61000000	         -0.45387265	          0.36458322	         -0.63767984	
          2.62000000	         -0.45305510	          0.35496293	         -0.63255450	
          2.63000000	         -0.45244062	          0.34608962	         -0.62775116	
          2.64000000	         -0.45197690	          0.33799297	         -0.62325472	
          2.65000000	         -0.45161391	          0.33066514	         -0.61905449	
          2.66000000	         -0.45130079	          0.32406273	         -0.61514361	
          2.67000000	         -0.45098270	          0.31811214	         -0.61151832	
          2.68000000	         -0.45059851	          0.31271799	         -0.60817762	
          2.69000000	         -0.45008053	          0.30777183	         -0.60512315	
          2.70000000	         -0.44935588	          0.30316051	         -0.60235876	
          2.71000000	         -0.44834927	          0.29877357	         -0.59989023	
          2.72000000	         -0.44698594	          0.29451101	         -0.59772456	
          2.73000000	         -0.44519437	          0.29028999	         -0.59586817	
          2.74000000	         -0.44290865	          0.28604754	         -0.59432344	
          2.75000000	         -0.44007075	          0.28174006	         -0.59308311	
          2.76000000	         -0.43663307	          0.27734027	         -0.59212367	
          2.77000000	         -0.43256063	          0.27283349	         -0.59140174	
          2.78000000	         -0.42783269	          0.26821507	         -0.59085655	
          2.79000000	         -0.42244366	          0.26348587	         -0.59040845	
          2.80000000	         -0.41640120	          0.25864906	         -0.58995317	
          2.81000000	         -0.40972247	          0.25371150	         -0.58937965	
          2.82000000	         -0.40243154	          0.24868439	         -0.58857845	
          2.83000000	         -0.39455774	          0.24358072	         -0.58743784	
          2.84000000	         -0.38613322	          0.23841524	         -0.58585414	
          2.85000000	         -0.37718957	          0.23320545	         -0.58373909	
          2.86000000	         -0.36775424	          0.22797131	         -0.58102164	
          2.87000000	         -0.35784748	          0.22273467	         -0.57764747	
          2.88000000	         -0.34748093	          0.21751782	         -0.57357762	
          2.89000000	         -0.33665870	          0.21234131	         -0.56878691	
          2.90000000	         -0.32538071	          0.20722212	         -0.56326202	
          2.91000000	         -0.31364728	          0.20217107	         -0.55699784	
          2.92000000	         -0.30146429	          0.19719204	         -0.54999326	
          2.93000000	         -0.28884853	          0.19228438	         -0.54224898	
          2.94000000	         -0.27583146	          0.18744777	         -0.53376487	
          2.95000000	         -0.26246102	          0.18268735	         -0.52453801	
          2.96000000	         -0.24880222	          0.17801752	         -0.51456379	
          2.97000000	         -0.23493594	          0.17346384	         -0.50383872	
          2.98000000	         -0.22095563	          0.16906354	         -0.49236446	
          2.99000000	         -0.20696256	          0.16486782	         -0.48015306	
          3.00000000	         -0.19306012	          0.16093981	         -0.46723091	
          3.01000000	         -0.17934837	          0.15734600	         -0.45364020	
          3.02000000	         -0.16592080	          0.15414565	         -0.43943846	
          3.03000000	         -0.15286254	          0.15138709	         -0.42469675	
          3.04000000	         -0.14024779	          0.14910084	         -0.40949557	
          3.05000000	         -0.12813701	          0.14730132	         -0.39392146	
          3.06000000	         -0.11657601	          0.14599224	         -0.37806540	
          3.07000000	         -0.10559565	          0.14517129	         -0.36202139	
          3.08000000	         -0.09521191	          0.14483252	         -0.34588394	
          3.09000000	         -0.08542675	          0.14496711	         -0.32974426	
          3.10000000	         -0.07622961	          0.14556397	         -0.31368565	
          3.11000000	         -0.06759987	          0.14660573	         -0.29777926	
          3.12000000	         -0.05951006	          0.14806398	         -0.28208160	
          3.13000000	         -0.05192943	          0.14989116	         -0.26663374	
          3.14000000	         -0.04482821	          0.15201514	         -0.25146284	
          3.15000000	         -0.03818127	          0.15433929	         -0.23658514	
          3.16000000	         -0.03197037	          0.15674795	         -0.22200912	
          3.17000000	         -0.02618484	          0.15911471	         -0.20773904	
          3.18000000	         -0.02082047	          0.16130922	         -0.19377818	
          3.19000000	         -0.01587754	          0.16320579	         -0.18013005	
          3.20000000	         -0.01135872	          0.16469194	         -0.16679874	
          3.21000000	         -0.00726552	          0.16567571	         -0.15378944	
          3.22000000	         -0.00359655	          0.16608866	         -0.14110720	
          3.23000000	         -0.00034814	          0.16588579	         -0.12875451	
